<?xml version="1.0" standalone="no"?>
<!DOCTYPE svg PUBLIC "-//W3C//DTD SVG 20010904//EN"
 "http://www.w3.org/TR/2001/REC-SVG-20010904/DTD/svg10.dtd">
<svg version="1.0" xmlns="http://www.w3.org/2000/svg"
 width="512.000000pt" height="512.000000pt" viewBox="0 0 512.000000 512.000000"
 preserveAspectRatio="xMidYMid meet">
<metadata>
Created by potrace 1.14, written by Peter Selinger 2001-2017
</metadata>
<g transform="translate(0.000000,512.000000) scale(0.100000,-0.100000)"
fill="#000000" stroke="none">
<path d="M345 5106 c-117 -29 -243 -127 -292 -227 -56 -113 -53 23 -53 -2324
0 -2031 1 -2164 18 -2220 25 -87 57 -141 118 -202 58 -59 148 -107 229 -122
31 -6 639 -10 1591 -10 1662 -1 1592 -3 1697 50 125 64 221 196 241 334 3 22
6 231 6 465 l0 425 33 36 c17 20 52 60 77 89 25 30 112 133 194 229 81 97 158
187 170 201 11 14 43 52 71 85 27 33 52 62 55 65 3 3 50 59 105 125 55 66 103
122 106 125 3 3 67 78 142 168 238 283 254 311 261 465 5 84 -6 135 -44 212
-40 81 -82 131 -154 177 -138 89 -291 98 -442 27 -75 -35 -129 -86 -269 -254
-60 -71 -111 -132 -114 -135 -4 -3 -47 -53 -95 -113 -49 -59 -91 -106 -92
-104 -2 2 -4 343 -5 758 -1 818 0 807 -57 913 -34 64 -104 135 -582 586 -118
111 -174 147 -269 174 -46 14 -216 15 -1325 15 -976 -1 -1283 -4 -1321 -13z
m2355 -676 c0 -375 1 -392 21 -431 14 -29 32 -46 62 -60 39 -17 70 -19 430
-19 l387 0 -1 -807 0 -808 -195 -230 c-108 -126 -215 -252 -239 -280 -148
-172 -237 -287 -260 -333 -29 -58 -175 -651 -175 -708 0 -88 60 -149 145 -148
41 1 103 24 349 132 165 72 315 143 335 157 l36 25 3 -246 c2 -232 1 -250 -18
-290 -12 -23 -33 -51 -48 -61 -26 -17 -93 -18 -1570 -21 -1414 -2 -1545 -1
-1574 14 -40 21 -51 32 -72 71 -15 29 -16 213 -16 2169 l0 2138 21 44 c16 33
32 49 63 63 39 18 90 19 1179 19 l1137 0 0 -390z m545 99 c44 -42 105 -101
136 -130 31 -30 86 -82 122 -116 l65 -63 -284 0 -284 0 0 272 0 271 83 -79
c45 -43 118 -113 162 -155z m1496 -1521 c52 -29 84 -93 75 -151 -7 -40 -56
-115 -108 -164 l-23 -22 -113 96 -112 95 26 32 c116 138 169 162 255 114z
m-364 -469 c59 -51 109 -95 111 -99 2 -5 -219 -273 -327 -395 -14 -16 -57 -68
-96 -115 -38 -47 -72 -87 -75 -90 -3 -3 -77 -90 -164 -193 -141 -167 -160
-186 -175 -174 -9 8 -59 49 -111 92 -52 43 -97 79 -99 81 -3 3 33 50 88 114
25 29 30 34 130 155 41 50 80 95 85 100 6 6 31 35 56 65 25 30 47 57 50 60 3
3 53 61 110 129 96 114 158 188 265 314 21 26 40 47 41 47 2 0 51 -41 111 -91z
m-1115 -1131 c15 -15 63 -55 133 -113 82 -67 79 -61 40 -109 -24 -30 -55 -52
-98 -71 -110 -48 -121 -53 -182 -78 -33 -14 -61 -24 -62 -23 -1 1 2 19 8 40 6
21 12 46 14 55 13 67 58 228 67 240 15 20 61 71 64 71 1 0 9 -6 16 -12z"/>
<path d="M705 4213 c-55 -14 -105 -84 -105 -149 0 -42 35 -98 78 -122 l40 -22
781 0 c707 0 785 2 814 16 114 59 114 209 0 268 -29 14 -106 16 -810 15 -428
-1 -787 -4 -798 -6z"/>
<path d="M700 3302 c-39 -18 -63 -40 -81 -74 -23 -45 -24 -77 -4 -124 17 -42
31 -56 72 -78 29 -15 145 -16 1263 -16 1352 0 1263 -4 1317 58 61 71 26 196
-65 233 -27 10 -2478 11 -2502 1z"/>
<path d="M678 2389 c-99 -52 -100 -197 -3 -255 l42 -24 1220 0 c671 0 1235 3
1252 6 36 8 100 67 103 95 6 66 3 88 -13 121 -12 24 -34 45 -59 58 -39 20 -56
20 -1272 20 -1207 -1 -1234 -1 -1270 -21z"/>
<path d="M705 1502 c-38 -13 -67 -37 -86 -74 -23 -45 -24 -77 -4 -124 17 -42
31 -56 72 -78 29 -14 111 -16 814 -16 l781 0 39 22 c50 28 70 58 74 115 6 67
-21 115 -82 147 -29 14 -109 16 -810 15 -428 -1 -787 -4 -798 -7z"/>
</g>
</svg>
